[img]http://www.shotpix.com/images/24940000574214150568.png[/img]


[url]http://www.imdb.com/title/tt0109125[/url]

[img]http://www.shotpix.com/images/77085747293401738346.gif[/img]

[code]Movie Name :- [18++]Angel Destruction (1994) DVDRip Hindi dubbed {somnath2003}

Run Time :- 86 min  

Genres-  Action | Adventure

Ratings: 5.2/10 from 133 users  

Director :- Charles Philip Moore

Writers :-Paul Maslak (story), Charles Philip Moore

Stars :-Maria Ford, Charlie Spradling, Jessica Mark [/code]


[img]http://www.shotpix.com/images/59022378797514383087.gif[/img]


[b]When a controversial rock star is stalked by a psychotic fan, undercover cop Brit Alwood is called in to help. But when Brit's kid sister Jo finds out about the crime, she sets out for revenge. Pulled into the dark, erotic world of sex, drugs, and rock-n-roll, Jo is forced to confront the crazed mind of a vicious serial killer. [/b]

[img]http://www.shotpix.com/images/44663617507488027387.gif[/img]


[code]Complete name                            : [18++]Angel Destruction (1994) DVDRip Hindi dubbed {somnath2003}.flv
Format                                   : MPEG-4
Format profile                           : Base Media / Version 2
Codec ID                                 : mp42
File size                                : 209 MiB
Duration                                 : 1h 25mn
Overall bit rate mode                    : Variable
Overall bit rate                         : 341 Kbps
Encoded date                             : UTC 2013-03-08 03:14:56
Tagged date                              : UTC 2013-03-08 03:14:56[/code]

[img]http://www.shotpix.com/images/34235854661596452485.gif[/img]



[code]ID                                       : 201
Format                                   : AVC
Format/Info                              : Advanced Video Codec
Format profile                           : High@L3.0
Format settings, CABAC                   : Yes
Format settings, ReFrames                : 2 frames
Codec ID                                 : avc1
Codec ID/Info                            : Advanced Video Coding
Duration                                 : 1h 25mn
Source duration                          : 1h 25mn
Bit rate                                 : 240 Kbps
Maximum bit rate                         : 880 Kbps
Width                                    : 320 pixels
Height                                   : 436 pixels
Display aspect ratio                     : 16:9
Frame rate mode                          : Variable
Frame rate                               : 23.976 fps
Minimum frame rate                       : 19.980 fps
Maximum frame rate                       : 59.940 fps
Color space                              : YUV
Chroma subsampling                       : 4:2:0
Bit depth                                : 8 bits
Scan type                                : Progressive
Bits/(Pixel*Frame)                       : 0.072
Stream size                              : 147 MiB (70%)
Source stream size                       : 147 MiB (70%)
Writing library                          : x264 core 107[/code]

[img]http://www.shotpix.com/images/54760780871226007874.gif[/img]


[code]ID                                       : 101
Format                                   : AAC
Format/Info                              : Advanced Audio Codec
Format profile                           : LC
Codec ID                                 : 40
Duration                                 : 1h 25mn
Bit rate mode                            : Variable
Bit rate                                 : 96.0 Kbps
Maximum bit rate                         : 117 Kbps
Channel(s)                               : 2 channels
Channel positions                        : Front: L R
Sampling rate                            : 48.0 KHz
Compression mode                         : Lossy
Delay relative to video                  : 10ms
Stream size                              : 58.8 MiB (28%)
Encoded date                             : UTC 2013-03-08 03:15:23
Tagged date                              : UTC 2013-03-08 03:15:24[/code]


[img]http://www.shotpix.com/images/50894759808379845433.gif[/img]




[img]http://img823.imageshack.us/img823/3033/18angeldestruction1994d.jpg[/img]





[img]http://www.shotpix.com/images/37530658244654420663.jpg[/img]






[img]http://www.shotpix.com/images/58829411693773444709.gif[/img]